<svg class="dag" viewBox="0 0 920 806" role="img" aria-label="過期的票怎麼換新">
  <defs>
    <marker id="orefar" viewBox="0 0 10 10" refX="9" refY="5" markerWidth="6" markerHeight="6" orient="auto">
      <path d="M0,0 L10,5 L0,10 z" fill="var(--ink-3)" stroke="none"/></marker>
    <marker id="orefbr" viewBox="0 0 10 10" refX="9" refY="5" markerWidth="6" markerHeight="6" orient="auto">
      <path d="M0,0 L10,5 L0,10 z" fill="var(--pen)" stroke="none"/></marker>
    <marker id="oreflp" viewBox="0 0 10 10" refX="9" refY="5" markerWidth="6" markerHeight="6" orient="auto">
      <path d="M0,0 L10,5 L0,10 z" fill="var(--loop)" stroke="none"/></marker>
  </defs>
  <path d="M260,88 L260,132" marker-end="url(#orefar)"/>
  <path d="M380.0,171.0 L470,171" marker-end="url(#orefar)"/>
  <path d="M260,210 L260,254" marker-end="url(#orefar)"/>
  <path d="M260,318 L260,362" marker-end="url(#orefar)"/>
  <path d="M380.0,401.0 L470,401" marker-end="url(#orefar)"/>
  <path d="M260,440 L260,484" marker-end="url(#orefar)"/>
  <path d="M260,548 L260,592" marker-end="url(#orefar)"/>
  <path d="M380.0,631.0 L470,631" marker-end="url(#orefar)"/>
  <path d="M260,670 L260,714" marker-end="url(#orefar)"/>
  <text class="lay" text-anchor="end" x="76" y="60">觸發</text>
  <a class="xref" href="#s-refresh">
  <g class="app lay-trigger src" data-snip="refresh" tabindex="0" role="button" aria-label="要用票，開啟原文">
    <rect x="80" y="24" width="360" height="64" rx="8"/>
    <text x="94" y="51">要用票</text>
    <text class="sub" x="94" y="71">refresh_if_needed</text>
    <path class="srcfold" d="M431,88 L440,88 L440,79 z"/>
  </g>
  </a>
  <text class="lay" text-anchor="end" x="76" y="175">判決</text>
  <a class="xref" href="#s-refresh">
  <g class="dec lay-judge src" data-snip="fresh" tabindex="0" role="button" aria-label="還沒過期？，開啟原文">
    <polygon points="260,132 380.0,171.0 260,210 140.0,171.0"/>
    <text text-anchor="middle" x="260" y="176.0">還沒過期？</text>
    <circle class="srcdot" cx="260" cy="193" r="4"/>
  </g>
  </a>
  <a class="xref" href="#s-refresh">
  <g class="app lay-judge src" data-snip="fresh" tabindex="0" role="button" aria-label="直接用，開啟原文">
    <rect x="470" y="142" width="430" height="58" rx="8"/>
    <text x="484" y="166">直接用</text>
    <text class="sub" x="484" y="186">不上鎖</text>
    <path class="srcfold" d="M891,200 L900,200 L900,191 z"/>
  </g>
  </a>
  <text class="elab" x="396.0" y="163.0">是</text>
  <text class="elab" x="272" y="236.0">過期</text>
  <text class="lay" text-anchor="end" x="76" y="290">圍籬</text>
  <a class="xref" href="#s-store">
  <g class="app lay-fence src" data-snip="lock" tabindex="0" role="button" aria-label="拿 auth.json.lock，開啟原文">
    <rect x="80" y="254" width="360" height="64" rx="8"/>
    <text x="94" y="281">拿 auth.json.lock</text>
    <text class="sub" x="94" y="301">flock</text>
    <path class="srcfold" d="M431,318 L440,318 L440,309 z"/>
  </g>
  </a>
  <text class="lay" text-anchor="end" x="76" y="405">判決</text>
  <a class="xref" href="#s-refresh">
  <g class="dec lay-judge src" data-snip="refresh" tabindex="0" role="button" aria-label="重讀後已是新票？，開啟原文">
    <polygon points="260,362 380.0,401.0 260,440 140.0,401.0"/>
    <text text-anchor="middle" x="260" y="406.0">重讀後已是新票？</text>
    <circle class="srcdot" cx="260" cy="423" r="4"/>
  </g>
  </a>
  <a class="xref" href="#s-refresh">
  <g class="app lay-judge src" data-snip="refresh" tabindex="0" role="button" aria-label="用別人換好的，開啟原文">
    <rect x="470" y="372" width="430" height="58" rx="8"/>
    <text x="484" y="396">用別人換好的</text>
    <text class="sub" x="484" y="416">不再 refresh</text>
    <path class="srcfold" d="M891,430 L900,430 L900,421 z"/>
  </g>
  </a>
  <text class="elab" x="396.0" y="393.0">是</text>
  <text class="elab" x="272" y="466.0">還是舊的</text>
  <text class="lay" text-anchor="end" x="76" y="520">執行</text>
  <a class="xref" href="#s-refresh">
  <g class="app lay-exec src" data-snip="refresh-grant" tabindex="0" role="button" aria-label="refresh_token 換新票，開啟原文">
    <rect x="80" y="484" width="360" height="64" rx="8"/>
    <text x="94" y="511">refresh_token 換新票</text>
    <text class="sub" x="94" y="531">oauth2/token</text>
    <path class="srcfold" d="M431,548 L440,548 L440,539 z"/>
  </g>
  </a>
  <text class="lay" text-anchor="end" x="76" y="635">判決</text>
  <a class="xref" href="#s-refresh">
  <g class="dec lay-judge src" data-snip="refresh-grant" tabindex="0" role="button" aria-label="伺服器回 invalid_grant？，開啟原文">
    <polygon points="260,592 380.0,631.0 260,670 140.0,631.0"/>
    <text text-anchor="middle" x="260" y="636.0">伺服器回 invalid_grant？</text>
    <circle class="srcdot" cx="260" cy="653" r="4"/>
  </g>
  </a>
  <a class="xref" href="#s-refresh">
  <g class="app lay-judge src" data-snip="refresh" tabindex="0" role="button" aria-label="刪檔，要求重登，開啟原文">
    <rect x="470" y="602" width="430" height="58" rx="8" stroke-dasharray="5 4"/>
    <text x="484" y="626">刪檔，要求重登</text>
    <text class="sub" x="484" y="646">RefreshRevoked</text>
    <path class="srcfold" d="M891,660 L900,660 L900,651 z"/>
  </g>
  </a>
  <text class="elab" x="396.0" y="623.0">是</text>
  <text class="elab" x="272" y="696.0">否</text>
  <text class="lay" text-anchor="end" x="76" y="750">圍籬</text>
  <a class="xref" href="#s-store">
  <g class="app lay-fence src" data-snip="save" tabindex="0" role="button" aria-label="寫回新票，開啟原文">
    <rect x="80" y="714" width="360" height="64" rx="8"/>
    <text x="94" y="741">寫回新票</text>
    <text class="sub" x="94" y="761">store.rs</text>
    <path class="srcfold" d="M431,778 L440,778 L440,769 z"/>
  </g>
  </a>
</svg>
